<svg xmlns="http://www.w3.org/2000/svg" xmlns:xlink="http://www.w3.org/1999/xlink" width="181.855" height="158.747" viewBox="0 0 181.855 158.747">
  <defs>
    <clipPath id="clip-path">
      <rect id="Rectangle_498" data-name="Rectangle 498" width="136.51" height="113.975" fill="none"/>
    </clipPath>
    <clipPath id="clip-path-3">
      <rect id="Rectangle_494" data-name="Rectangle 494" width="12.455" height="8.926" fill="none"/>
    </clipPath>
    <clipPath id="clip-path-4">
      <path id="Path_1997" data-name="Path 1997" d="M0,6.2a1.276,1.276,0,0,0,.445.964,2.574,2.574,0,0,0,3.507-.021,1.116,1.116,0,0,0,.323-.838L4.264.032A11.343,11.343,0,0,0,2.62.2S1.669.063,0,0Z" fill="none"/>
    </clipPath>
    <linearGradient id="linear-gradient" x1="-13.489" y1="14.034" x2="-13.407" y2="14.034" gradientUnits="objectBoundingBox">
      <stop offset="0" stop-color="#242929"/>
      <stop offset="1" stop-color="#242929"/>
    </linearGradient>
  </defs>
  <g id="Oinq_3rd_Failed_message" transform="translate(-98.898 -405.5)">
    <g id="Group_2196" data-name="Group 2196">
      <path id="Ellipse_29" data-name="Ellipse 29" d="M3.078,1.026A2.052,2.052,0,1,0,5.129,3.078,2.054,2.054,0,0,0,3.078,1.026M3.078,0A3.078,3.078,0,1,1,0,3.078,3.078,3.078,0,0,1,3.078,0Z" transform="translate(127.126 438.922)" fill="#d1d1d1"/>
      <path id="Ellipse_29-2" data-name="Ellipse 29" d="M3.078,1.026A2.052,2.052,0,1,0,5.129,3.078,2.054,2.054,0,0,0,3.078,1.026M3.078,0A3.078,3.078,0,1,1,0,3.078,3.078,3.078,0,0,1,3.078,0Z" transform="translate(260.126 514.922)" fill="#d1d1d1"/>
      <path id="Ellipse_29-3" data-name="Ellipse 29" d="M3.078,1.026A2.052,2.052,0,1,0,5.129,3.078,2.054,2.054,0,0,0,3.078,1.026M3.078,0A3.078,3.078,0,1,1,0,3.078,3.078,3.078,0,0,1,3.078,0Z" transform="translate(218.126 428.922)" fill="#d1d1d1"/>
      <path id="Ellipse_29-4" data-name="Ellipse 29" d="M1.58.527A1.054,1.054,0,1,0,2.634,1.58,1.055,1.055,0,0,0,1.58.527M1.58,0A1.58,1.58,0,1,1,0,1.58,1.58,1.58,0,0,1,1.58,0Z" transform="translate(116.94 456.922)" fill="#3b9f60"/>
      <path id="Ellipse_29-5" data-name="Ellipse 29" d="M1.58.527A1.054,1.054,0,1,0,2.634,1.58,1.055,1.055,0,0,0,1.58.527M1.58,0A1.58,1.58,0,1,1,0,1.58,1.58,1.58,0,0,1,1.58,0Z" transform="translate(252.94 472.922)" fill="#3b9f60"/>
      <path id="Ellipse_29-6" data-name="Ellipse 29" d="M1.58.527A1.054,1.054,0,1,0,2.634,1.58,1.055,1.055,0,0,0,1.58.527M1.58,0A1.58,1.58,0,1,1,0,1.58,1.58,1.58,0,0,1,1.58,0Z" transform="translate(122.94 520.922)" fill="#3b9f60"/>
      <path id="Ellipse_29-7" data-name="Ellipse 29" d="M1.58.527A1.054,1.054,0,1,0,2.634,1.58,1.055,1.055,0,0,0,1.58.527M1.58,0A1.58,1.58,0,1,1,0,1.58,1.58,1.58,0,0,1,1.58,0Z" transform="translate(174.94 416.922)" fill="#3b9f60"/>
      <g id="Failed_oinq_3" data-name="Failed oinq 3" transform="translate(87.758 351.791)">
        <g id="Group_1019" data-name="Group 1019" transform="translate(11.14 53.709)">
          <g id="Group_953" data-name="Group 953" transform="translate(0 0)">
            <g id="Group_910" data-name="Group 910" transform="translate(0 0)">
              <g id="Group_455" data-name="Group 455" transform="translate(0 0)">
                <text id="_" data-name="@?" transform="translate(40.093 13.925)" fill="#d1d1d1" font-size="14" font-family="Metropolis-ExtraBold, Metropolis" font-weight="800" letter-spacing="-0.04em"><tspan x="-9.401" y="0">@?</tspan></text>
                <path id="Polygon_53" data-name="Polygon 53" d="M13.939,0,11.947,7.765l7.765-1.992-6.9,4.083,6.9,4.083-7.765-1.992,1.992,7.765-4.083-6.9-4.083,6.9,1.992-7.765L0,13.939,6.9,9.856,0,5.774,7.765,7.765,5.774,0,9.856,6.9Z" transform="translate(94.949)" fill="#4db96e"/>
                <path id="Polygon_54" data-name="Polygon 54" d="M13.939,0,11.947,7.765l7.765-1.992-6.9,4.083,6.9,4.083-7.765-1.992,1.992,7.765-4.083-6.9-4.083,6.9,1.992-7.765L0,13.939,6.9,9.856,0,5.774,7.765,7.765,5.774,0,9.856,6.9Z" transform="translate(0 78.496)" fill="#3b9f60"/>
                <path id="Polygon_55" data-name="Polygon 55" d="M13.939,0,11.947,7.765l7.765-1.992-6.9,4.083,6.9,4.083-7.765-1.992,1.992,7.765-4.083-6.9-4.083,6.9,1.992-7.765L0,13.939,6.9,9.856,0,5.774,7.765,7.765,5.774,0,9.856,6.9Z" transform="translate(162.143 54.527)" fill="#d1d1d1"/>
              </g>
            </g>
          </g>
          <g id="Group_964" data-name="Group 964" transform="translate(42.7 16.986) rotate(13)">
            <g id="Group_963" data-name="Group 963" clip-path="url(#clip-path)">
              <g id="Group_958" data-name="Group 958">
                <g id="Group_957" data-name="Group 957" clip-path="url(#clip-path)">
                  <path id="Path_1983" data-name="Path 1983" d="M17.32,6.833a8.674,8.674,0,0,1-1.49.522c-.624.178-1.152.3-1.516.37C15.212,3.9,11.271-.862,7.528.134a3.289,3.289,0,0,0-2.815,2.26A3.8,3.8,0,0,0,5.725,7.021,8.85,8.85,0,0,0,11.18,9.339C9.874,11.957,7.6,12.617,4.732,13.132a18.452,18.452,0,0,1-4.341.412l.059.346a4.649,4.649,0,0,1-.45,2.9c4.684-.154,9.564-1.7,12.239-5.236A10.764,10.764,0,0,0,13.55,9.691c.082-.146.156-.294.226-.444a5.985,5.985,0,0,0,3.808-1.007c1.939-1.374,2.228-4.366,2.246-4.362a3.332,3.332,0,0,1-.42,1.1A4.817,4.817,0,0,1,17.32,6.833m-5.277-.065c-.7.8-2.345.515-3.668-.642S6.538,3.377,7.241,2.574s2.345-.515,3.668.646,1.832,2.746,1.134,3.549" transform="translate(114.752 50.962)" fill="#3b9f60"/>
                  <g id="Group_956" data-name="Group 956" transform="translate(116.377 58.702)" opacity="0.29" style="isolation: isolate">
                    <g id="Group_955" data-name="Group 955">
                      <g id="Group_954" data-name="Group 954" clip-path="url(#clip-path-3)">
                        <path id="Path_1984" data-name="Path 1984" d="M7.237,4.252,7.08,4.207a13.019,13.019,0,0,1-3.971,1.2A24.87,24.87,0,0,1,0,5.828l.089,3.1C4.219,8.49,8.283,6.915,10.627,3.81a10.737,10.737,0,0,0,1.311-1.861c.079-.142.15-.285.221-.433.2-.906.3-1.517.3-1.517-.828,1.818-5.217,4.252-5.217,4.252" transform="translate(0 0)" fill="#191919"/>
                      </g>
                    </g>
                  </g>
                  <path id="Path_1985" data-name="Path 1985" d="M109.472,23.1c4.632-6.288,11.131-23.32-.7-23.1C98.706.184,89.045,5.262,86,6.991,73.752,3.39,61.8,3.74,60.374,4.014A65.316,65.316,0,0,0,34.949,7.275C32.6,5.872,22.37.2,11.692,0c-12.141-.221-4.966,17.734-.33,23.58a51.338,51.338,0,0,0-3.717,5.4c-17.1,28.535-4.85,70.6,30.134,81.82,13.908,4.457,58.437,8.416,73.607-19.172,11.723-21.321,7.021-53.706-1.915-68.526" transform="translate(0 0)" fill="#4db96e"/>
                  <path id="Path_1986" data-name="Path 1986" d="M83.514,22.766C87.722,17.039,93.494,2.427,85.566,0c6.014,4.58-1.031,17.885-5.194,16.159C76.848,14.928,68.7,9.223,62.1,5.541c-.845.435-1.543.821-2.048,1.112h-.035c6.9,4.1,17.72,10.447,20.034,16.91,8.648,24.144,9.342,46.034-4.8,67.015-8.967,13.294-27.385,17.359-41.31,18.484A78.458,78.458,0,0,1,0,105.042a53.569,53.569,0,0,0,11.821,5.422c13.908,4.457,58.437,8.416,73.607-19.172,11.723-21.321,7.021-53.706-1.915-68.526" transform="translate(25.958 0.339)" fill="#3b9f60"/>
                  <path id="Path_1987" data-name="Path 1987" d="M37.638,1.011S7.213,10.865,1.448,32.548c-4.8,17.986,2.563,43.856,18.895,55.19s52.49,9.36,64.371-2.325C99.9,70.481,91.955,57.639,81.4,57.1c0,0-13.652-5.962-18.775-.035-2.563,3.7-14.094,4.436-15.055-1.476-2.56-3.447-7.6-1.01-19.214,2.585C23.2,59.753,13.381,46.077,25.3,36.609c14.83-11.776,57.862-9.7,67,7.129,6.908,12.7,10.25-27.532-5.123-35.419S53.973-1.451,37.638,1.011" transform="translate(3.322 6.864)" fill="#6fc282"/>
                  <path id="Path_1988" data-name="Path 1988" d="M0,6.609s9.854,6.663,11.306,9.272C13.62,15.589,17.1,5.448,16.52,1.969S6.095-.626,0,6.609" transform="translate(94.13 6.004)" fill="#6fc282"/>
                  <path id="Path_1989" data-name="Path 1989" d="M19.24,1.628a2.517,2.517,0,0,0-.357-.935A2.307,2.307,0,0,0,18.2,0c-.384,4.438-1.291,11.328-5.311,12.118C9.111,13.027,4.123,8.893.817,6.458.535,6.785.257,7.115,0,7.464c0,0,11.481,8.382,13.173,11.664C15.861,18.761,19.914,6,19.24,1.628" transform="translate(92.42 3.842)" fill="#3b9f60"/>
                  <path id="Path_1990" data-name="Path 1990" d="M24.456.018S12.074-.812,3.913,8.908c-5.755,6.761-6.307,19.082,6.243,21.174s19.316,4.364,25.481,8.2,16.4,5.346,19.972.142,6.108-14.384.417-22.815S40.033-.018,24.456.018" transform="translate(24.762 37.788)" fill="#3b9f60"/>
                  <path id="Path_1991" data-name="Path 1991" d="M.953,12.175s-4.179,9.457,4.965,12.936S21.4,27.223,35.706,34.7s18.337-2.328,18.089-10.856S44.851,5.324,32.876,1.642,7.312.055.953,12.175" transform="translate(27.821 39.586)" fill="#4db96e"/>
                  <path id="Path_1992" data-name="Path 1992" d="M7.088,5.425A3.943,3.943,0,0,1,2.206,8.059,3.944,3.944,0,0,1,.315,2.847,3.943,3.943,0,0,1,5.2.208,3.948,3.948,0,0,1,7.088,5.425" transform="translate(35.944 49.353)" fill="#3b9f60"/>
                  <path id="Path_1993" data-name="Path 1993" d="M7.087,5.423a3.948,3.948,0,0,1-4.88,2.639A3.943,3.943,0,0,1,.317,2.845,3.946,3.946,0,0,1,5.2.207a3.946,3.946,0,0,1,1.89,5.216" transform="translate(36.694 50.869)" fill="#242929"/>
                  <path id="Path_1994" data-name="Path 1994" d="M7.085,5.421A3.955,3.955,0,0,1,2.2,8.06,3.957,3.957,0,0,1,.313,2.847,3.944,3.944,0,0,1,5.194.208,3.942,3.942,0,0,1,7.085,5.421" transform="translate(66.173 59.356)" fill="#3b9f60"/>
                  <path id="Path_1995" data-name="Path 1995" d="M7.091,5.424A3.949,3.949,0,0,1,2.207,8.062,3.941,3.941,0,0,1,.317,2.845,3.946,3.946,0,0,1,5.2.207,3.942,3.942,0,0,1,7.091,5.424" transform="translate(66.917 60.871)" fill="#242929"/>
                  <path id="Path_1996" data-name="Path 1996" d="M12.341,1.74S3.639-1.57.111.94C-.713,2.235,3.147,5.633,8.565,5.757s7.358-3.3,3.776-4.017" transform="translate(48.735 40.899)" fill="#a6d7b7"/>
                </g>
              </g>
              <g id="Group_960" data-name="Group 960" transform="translate(57.761 3.842)">
                <g id="Group_959" data-name="Group 959" transform="translate(0 0)" clip-path="url(#clip-path-4)">
                  <rect id="Rectangle_496" data-name="Rectangle 496" width="4.282" height="7.847" transform="translate(0 0)" fill="url(#linear-gradient)"/>
                </g>
              </g>
              <g id="Group_962" data-name="Group 962" transform="translate(33.66 2.92)">
                <g id="Group_1015" data-name="Group 1015" transform="translate(0 0)">
                  <path id="Path_1998" data-name="Path 1998" d="M3.661.382s-.642,7.259.3,8.192-2.388-.21-2.388-.21L0,2.753.852,0Z" transform="translate(21.05 0)" fill="#3b9f60"/>
                  <path id="Path_1999" data-name="Path 1999" d="M.47.382s.642,7.259-.3,8.192,2.388-.21,2.388-.21L4.131,2.753,3.279,0Z" transform="translate(27.261 0)" fill="#3b9f60"/>
                  <path id="Path_2000" data-name="Path 2000" d="M15.444,4.647a.984.984,0,0,1-.532.033,2.029,2.029,0,0,1-.637-.237C4.81-.867,2.526,4.264,2.434,4.481a.457.457,0,0,1-.209.225.76.76,0,0,1-.359.081,1.871,1.871,0,0,1-.936-.3,2.278,2.278,0,0,1-.757-.725.83.83,0,0,1-.135-.729c.033-.067,2.985-6.713,14.713-.13a2.307,2.307,0,0,1,.759.69.91.91,0,0,1,.186.724.476.476,0,0,1-.251.325" transform="translate(36.465 21.447)" fill="#3b9f60"/>
                  <path id="Path_2001" data-name="Path 2001" d="M.61,9.572a.517.517,0,0,1-.389-.02A.556.556,0,0,1,0,9.022,1.808,1.808,0,0,1,.272,8.2C6.694-2.107,12.621.217,12.678.24a.388.388,0,0,1,.2.183.688.688,0,0,1,.071.32,1.385,1.385,0,0,1-.065.408,2.077,2.077,0,0,1-.191.433,2.257,2.257,0,0,1-.288.393,1.781,1.781,0,0,1-.341.294,1.019,1.019,0,0,1-.343.149.5.5,0,0,1-.292-.019c-.2-.076-4.793-1.823-9.951,6.447a2.146,2.146,0,0,1-.411.47,1.243,1.243,0,0,1-.453.254" transform="translate(0 18.934)" fill="#3b9f60"/>
                  <path id="Path_2002" data-name="Path 2002" d="M0,22.228C4.8,17.675,12.1,10.02,9.713,2.862A11.225,11.225,0,0,0,8.142,0a10.085,10.085,0,0,1,1.891,2.736C13.059,10.089,5.538,18.222,0,22.228" transform="translate(81.819 70.01)" fill="#1d1d1b"/>
                  <path id="Path_2003" data-name="Path 2003" d="M0,43.616c4.153.859,10.352-3.19,13.549-5.685,8.882-6.919,15.6-18.327,9.611-29.27A31.749,31.749,0,0,0,15.975,0a29.287,29.287,0,0,1,7.573,8.448c6.441,11.088-.427,23.014-9.671,29.908C10.546,40.83,4.227,44.722,0,43.616" transform="translate(76.779 59.316)" fill="#1d1d1b"/>
                  <path id="Path_2008" data-name="Path 2008" d="M3.816,2.413S2.779.346,1.423.032s-2.2,1.74-.372,3.329,3.683.723,2.765-.948" transform="translate(46.208 29.352)" fill="#7e8390"/>
                  <path id="Path_2009" data-name="Path 2009" d="M0,.4A107.366,107.366,0,0,1,11.367.065c.383.069.4.07,0,.088A48.862,48.862,0,0,0,6.085,1.469c-1.862.537-3.724,1.1-5.567,1.684Z" transform="translate(6.213 27.096)" fill="#1d1d1b"/>
                  <path id="Path_2010" data-name="Path 2010" d="M.169,0c.054,2.336.3,7.648,3.288,7.96,2,.059,3.821-1.662,5.4-2.775C10.705,3.9,12.463,2.371,14.712,1.77a3.4,3.4,0,0,1,3.516,1.441,37.028,37.028,0,0,1,3.177,5.863c1.318,2.542,2.071,2.348,3.465.029.541-.909.991-1.9,1.533-2.873a4.832,4.832,0,0,1,1.076-1.454.889.889,0,0,1,.689-.188c.609.168.729.7,1,1.136.635,1.275.891,2.6,1.4,3.873.46,1.167,1.033.651,1.586-.1-.918,1.771-1.66.834-2.226-.51a25.242,25.242,0,0,0-1.367-2.929,2.677,2.677,0,0,0-.53-.7c.024.007,0,0-.064.06a4.627,4.627,0,0,0-.751,1.238c-.875,1.726-1.438,3.845-3.039,5.132-2.372,1.494-3.881-1.877-4.695-3.57a25.7,25.7,0,0,0-2.353-4.126c-1.327-1.954-3.243-.635-4.867.316-1.323.8-2.756,1.823-4.048,2.711A11.415,11.415,0,0,1,5.172,8.689C.074,10.2-.351,3.428.169,0" transform="translate(18.578 78.949)" fill="#000" />
                </g>
              </g>
            </g>
          </g>
        </g>
        <g id="Group_1018" data-name="Group 1018" transform="translate(107.852 124.288)">
          <path id="Path_2053" data-name="Path 2053" d="M25.8,18.819S13.649,7.954,10.848,1.435c0,0-4.272-3.928-6.269,1.212C-1.112,2.569-.56,8.232,1.246,13.53s17.726,30.853,25.06,32.44S39.39,34.046,39.39,34.046,40.509,30.523,25.8,18.819" transform="translate(10.37 0) rotate(13)" fill="#4db96e"/>
          <path id="Path_2054" data-name="Path 2054" d="M25.8,18.819s-.694-.621-1.914-1.773C20.525,13.874,12.98,6.4,10.848,1.435c0,0-4.272-3.928-6.269,1.212C-1.112,2.569-.56,8.232,1.246,13.53a29.251,29.251,0,0,0,1.809,3.828c3.9-3.741,8.346-5.82,12.245-2.171,4.725,4.35,2.639,13.29-.323,20.386,4.184,5.39,8.427,9.772,11.33,10.4C33.641,47.558,39.39,34.046,39.39,34.046S40.509,30.523,25.8,18.819" transform="translate(10.37 0) rotate(13)" fill="#3b9f60"/>
          <path id="Path_2055" data-name="Path 2055" d="M3.473,18.131a34.381,34.381,0,0,1-2.229-4.6c-1.8-5.3-2.358-10.961,3.334-10.882,2-5.14,6.268-1.212,6.268-1.212a31.96,31.96,0,0,0,4.934,7.182A25.807,25.807,0,0,0,3.473,18.131" transform="translate(10.372 0.001) rotate(13)" fill="#242929"/>
          <path id="Path_2056" data-name="Path 2056" d="M7.481,1.624A4.026,4.026,0,0,0,5.042,0C3.691-.089,2.919,1.592,3.328,3.625,2.063,2.686.2,3.771.009,6.728s2.841,4.751,6.151,3,5-2.839,3.911-4.371-2.59-3.733-2.59-3.733" transform="translate(13.016 1.352) rotate(13)" fill="#4b5a6b"/>
        </g>
      </g>
    </g>
  </g>
</svg>
