<svg xmlns="http://www.w3.org/2000/svg" xmlns:xlink="http://www.w3.org/1999/xlink" width="190.489" height="144.769" viewBox="0 0 190.489 144.769">
  <defs>
    <clipPath id="clip-path">
      <rect id="Rectangle_618" data-name="Rectangle 618" width="52.221" height="53.92" fill="none"/>
    </clipPath>
    <clipPath id="clip-path-2">
      <rect id="Rectangle_492" data-name="Rectangle 492" width="149.418" height="111.899" fill="none"/>
    </clipPath>
    <clipPath id="clip-path-4">
      <rect id="Rectangle_488" data-name="Rectangle 488" width="13.445" height="6.635" fill="none"/>
    </clipPath>
    <clipPath id="clip-path-5">
      <path id="Path_1969" data-name="Path 1969" d="M212.807,17.043a1.256,1.256,0,0,0,.437.947,2.527,2.527,0,0,0,3.443-.02,1.1,1.1,0,0,0,.245-.378,1.087,1.087,0,0,0,.072-.445l-.01-6.159a11.141,11.141,0,0,0-1.615.162s-.933-.131-2.572-.193Z" transform="translate(-212.807 -10.956)" fill="none"/>
    </clipPath>
    <linearGradient id="linear-gradient" x1="-17.429" y1="14.034" x2="-17.347" y2="14.034" gradientUnits="objectBoundingBox">
      <stop offset="0" stop-color="#242929"/>
      <stop offset="1" stop-color="#242929"/>
    </linearGradient>
  </defs>
  <g id="Oinq_4th_Failed_message" transform="translate(-93.935 -405.5)">
    <path id="Ellipse_29" data-name="Ellipse 29" d="M3.078,1.026A2.052,2.052,0,1,0,5.129,3.078,2.054,2.054,0,0,0,3.078,1.026M3.078,0A3.078,3.078,0,1,1,0,3.078,3.078,3.078,0,0,1,3.078,0Z" transform="translate(118.126 420.922)" fill="#d1d1d1"/>
    <path id="Ellipse_29-2" data-name="Ellipse 29" d="M3.078,1.026A2.052,2.052,0,1,0,5.129,3.078,2.054,2.054,0,0,0,3.078,1.026M3.078,0A3.078,3.078,0,1,1,0,3.078,3.078,3.078,0,0,1,3.078,0Z" transform="translate(105.126 526.922)" fill="#d1d1d1"/>
    <path id="Ellipse_29-3" data-name="Ellipse 29" d="M3.078,1.026A2.052,2.052,0,1,0,5.129,3.078,2.054,2.054,0,0,0,3.078,1.026M3.078,0A3.078,3.078,0,1,1,0,3.078,3.078,3.078,0,0,1,3.078,0Z" transform="translate(250.126 531.922)" fill="#d1d1d1"/>
    <path id="Ellipse_29-4" data-name="Ellipse 29" d="M3.078,1.026A2.052,2.052,0,1,0,5.129,3.078,2.054,2.054,0,0,0,3.078,1.026M3.078,0A3.078,3.078,0,1,1,0,3.078,3.078,3.078,0,0,1,3.078,0Z" transform="translate(229.126 411.922)" fill="#d1d1d1"/>
    <path id="Ellipse_29-5" data-name="Ellipse 29" d="M1.58.527A1.054,1.054,0,1,0,2.634,1.58,1.055,1.055,0,0,0,1.58.527M1.58,0A1.58,1.58,0,1,1,0,1.58,1.58,1.58,0,0,1,1.58,0Z" transform="translate(171.94 418.078)" fill="#3b9f60"/>
    <path id="Ellipse_29-6" data-name="Ellipse 29" d="M1.58.527A1.054,1.054,0,1,0,2.634,1.58,1.055,1.055,0,0,0,1.58.527M1.58,0A1.58,1.58,0,1,1,0,1.58,1.58,1.58,0,0,1,1.58,0Z" transform="translate(131.94 437.078)" fill="#3b9f60"/>
    <path id="Ellipse_29-7" data-name="Ellipse 29" d="M1.58.527A1.054,1.054,0,1,0,2.634,1.58,1.055,1.055,0,0,0,1.58.527M1.58,0A1.58,1.58,0,1,1,0,1.58,1.58,1.58,0,0,1,1.58,0Z" transform="translate(272.94 485.078)" fill="#3b9f60"/>
    <path id="Ellipse_29-8" data-name="Ellipse 29" d="M1.58.527A1.054,1.054,0,1,0,2.634,1.58,1.055,1.055,0,0,0,1.58.527M1.58,0A1.58,1.58,0,1,1,0,1.58,1.58,1.58,0,0,1,1.58,0Z" transform="translate(147.94 413.078)" fill="#3b9f60"/>
    <path id="Ellipse_29-9" data-name="Ellipse 29" d="M1.58.527A1.054,1.054,0,1,0,2.634,1.58,1.055,1.055,0,0,0,1.58.527M1.58,0A1.58,1.58,0,1,1,0,1.58,1.58,1.58,0,0,1,1.58,0Z" transform="translate(148.94 531.078)" fill="#3b9f60"/>
    <g id="Failed_oinq_4" data-name="Failed oinq 4" transform="translate(-13.065 297.701)">
      <g id="Group_1259" data-name="Group 1259" transform="translate(107 107.799)">
        <g id="Group_889" data-name="Group 889" transform="translate(10.026)">
          <g id="Group_880" data-name="Group 880" transform="translate(0 0)">
            <g id="Group_838" data-name="Group 838" transform="translate(0 0)">
              <g id="Group_455" data-name="Group 455" transform="translate(0 0)">
                <text id="_" data-name="@?" transform="translate(112.573 106.746)" fill="#d1d1d1" font-size="13" font-family="Metropolis-ExtraBold, Metropolis" font-weight="800" letter-spacing="-0.04em"><tspan x="-8.729" y="0">@?</tspan></text>
                <path id="Polygon_53" data-name="Polygon 53" d="M13.722,0,11.761,7.644l7.644-1.961L12.613,9.7l6.792,4.019-7.644-1.961,1.961,7.644L9.7,12.613,5.684,19.405l1.961-7.644L0,13.722,6.792,9.7,0,5.684,7.644,7.644,5.684,0,9.7,6.792Z" transform="translate(94.912)" fill="#4db96e"/>
                <path id="Polygon_54" data-name="Polygon 54" d="M13.722,0,11.761,7.644l7.644-1.961L12.613,9.7l6.792,4.019-7.644-1.961,1.961,7.644L9.7,12.613,5.684,19.405l1.961-7.644L0,13.722,6.792,9.7,0,5.684,7.644,7.644,5.684,0,9.7,6.792Z" transform="translate(0 67.57)" fill="#3b9f60"/>
                <path id="Polygon_55" data-name="Polygon 55" d="M13.722,0,11.761,7.644l7.644-1.961L12.613,9.7l6.792,4.019-7.644-1.961,1.961,7.644L9.7,12.613,5.684,19.405l1.961-7.644L0,13.722,6.792,9.7,0,5.684,7.644,7.644,5.684,0,9.7,6.792Z" transform="translate(161.058 53.677)" fill="#d1d1d1"/>
              </g>
            </g>
          </g>
        </g>
        <g id="Group_1260" data-name="Group 1260" transform="translate(0 94.775) rotate(-22)">
          <g id="Group_1257" data-name="Group 1257" clip-path="url(#clip-path)">
            <path id="Path_2369" data-name="Path 2369" d="M24.583.37,1.969,9.471S-.981,10.781.341,12.835,23.556,47.621,23.556,47.621s2.217,2.356,4.3,1.5,22.38-14.191,22.38-14.191,2.258-2.2.943-4S29.956,1.644,29.956,1.644A4.764,4.764,0,0,0,24.583.37" transform="translate(0 4.612)" fill="#000" />
            <path id="Path_2370" data-name="Path 2370" d="M24.583.37,1.969,9.471S-.981,10.781.341,12.835,23.556,47.621,23.556,47.621s2.217,2.356,4.3,1.5,22.38-14.191,22.38-14.191,2.258-2.2.943-4S29.956,1.644,29.956,1.644A4.764,4.764,0,0,0,24.583.37" transform="translate(0.633 3.516)" fill="#8a522f"/>
            <path id="Path_2371" data-name="Path 2371" d="M0,10.488,22.242,0l20.1,28.292L20.173,42.467Z" transform="translate(5.035 5.518)" fill="#fff"/>
            <path id="Path_2372" data-name="Path 2372" d="M3.065,12.683,20.273,5.241,17.329,1.1A3.889,3.889,0,0,0,13.21.261C11.464.886,1.965,4.351,1.965,4.351s-2.665,1.3-1.788,3c.591,1.15,2.888,5.327,2.888,5.327" transform="translate(5.709 3.382)" fill="#7b7b79"/>
            <path id="Path_2373" data-name="Path 2373" d="M3.241.057A3.747,3.747,0,0,0,.048,4.281a3.747,3.747,0,0,0,4.4,2.943A3.747,3.747,0,0,0,7.643,3,3.747,3.747,0,0,0,3.241.057m.9,5.328A2.005,2.005,0,0,1,1.785,3.811a2.005,2.005,0,0,1,1.708-2.26A2.005,2.005,0,0,1,5.849,3.126,2.005,2.005,0,0,1,4.14,5.386" transform="translate(9.266 0.349)" fill="#7b7b79"/>
            <path id="Path_2374" data-name="Path 2374" d="M3.065,12.683,20.273,5.241,17.329,1.1A3.889,3.889,0,0,0,13.21.261C11.464.886,1.965,4.351,1.965,4.351s-2.665,1.3-1.788,3c.591,1.15,2.888,5.327,2.888,5.327" transform="translate(6.154 2.924)" fill="#b3b3b3"/>
            <path id="Path_2375" data-name="Path 2375" d="M3.241.057A3.747,3.747,0,0,0,.048,4.281a3.747,3.747,0,0,0,4.4,2.943A3.747,3.747,0,0,0,7.643,3,3.747,3.747,0,0,0,3.241.057m.9,5.328A2.005,2.005,0,0,1,1.785,3.811a2.005,2.005,0,0,1,1.708-2.26A2.005,2.005,0,0,1,5.849,3.126,2.005,2.005,0,0,1,4.14,5.386" transform="translate(9.605 0)" fill="#b3b3b3"/>
            <rect id="Rectangle_616" data-name="Rectangle 616" width="6.519" height="6.519" rx="3.259" transform="matrix(0.863, -0.505, 0.505, 0.863, 17.166, 17.963)" fill="none" stroke="#000" stroke-miterlimit="10" stroke-width="1"/>
            <path id="Rectangle_617" data-name="Rectangle 617" d="M3.259,0h0A3.259,3.259,0,0,1,6.519,3.259v0A3.259,3.259,0,0,1,3.259,6.519h0A3.259,3.259,0,0,1,0,3.259v0A3.259,3.259,0,0,1,3.259,0Z" transform="matrix(0.863, -0.505, 0.505, 0.863, 23.191, 26.627)" fill="none" stroke="#000" stroke-miterlimit="10" stroke-width="1"/>
            <path id="Path_2376" data-name="Path 2376" d="M2.093,0,0,4.607l.975.425L2.6.255Z" transform="translate(20.535 16.615)" fill="#ff5e45"/>
            <path id="Path_2377" data-name="Path 2377" d="M5.125,1.568.314,0,0,1.016,4.929,2.1Z" transform="translate(19.505 17.768)" fill="#ff5e45"/>
            <path id="Path_2378" data-name="Path 2378" d="M2.093,0,0,4.607l.975.425L2.6.255Z" transform="translate(26.44 25.004)" fill="#ff5e45"/>
            <path id="Path_2379" data-name="Path 2379" d="M5.125,1.568.314,0,0,1.016,4.929,2.1Z" transform="translate(25.41 26.157)" fill="#ff5e45"/>
          </g>
        </g>
        <g id="Group_1261" data-name="Group 1261" transform="translate(23.311 22.143)">
          <g id="Group_950" data-name="Group 950">
            <g id="Group_949" data-name="Group 949" clip-path="url(#clip-path-2)">
              <g id="Group_944" data-name="Group 944">
                <g id="Group_943" data-name="Group 943" clip-path="url(#clip-path-2)">
                  <path id="Path_1943" data-name="Path 1943" d="M21.672,64.02S12.208,52.786,10.535,46.615c0,0-3.314-4.046-5.747.287C-.28,46.111-.505,51.233.434,56.19s11.907,29.775,18.25,32.121S31.87,79.329,31.87,79.329s1.445-3-10.2-15.309" transform="translate(0 -29.44)" fill="#4db96e"/>
                  <path id="Path_1944" data-name="Path 1944" d="M21.672,64.02S12.208,52.786,10.535,46.615c0,0-3.314-4.046-5.747.287C-.28,46.111-.505,51.233.434,56.19a26.371,26.371,0,0,0,1.129,3.645c3.952-2.844,8.185-4.135,11.2-.385,3.665,4.48.67,12.193-2.872,18.149,3.05,5.339,6.281,9.787,8.792,10.712,6.343,2.346,13.186-8.982,13.186-8.982s1.445-3-10.2-15.309" transform="translate(0 -29.44)" fill="#3b9f60"/>
                  <path id="Path_1945" data-name="Path 1945" d="M1.843,60.577A31.014,31.014,0,0,1,.437,56.19C-.5,51.234-.278,46.11,4.791,46.9c2.433-4.333,5.747-.287,5.747-.287a28.8,28.8,0,0,0,3.493,7.033A23.259,23.259,0,0,0,1.843,60.577" transform="translate(-0.003 -29.44)" fill="#242929"/>
                  <path id="Path_1946" data-name="Path 1946" d="M12.278,87.921s-2.116.464-2.313,1.8,3.119,9.135,4.61,10.236,1.987-4.186,1.028-7.545-2.058-4.494-3.325-4.488" transform="translate(-6.529 -57.65)" fill="#a6d7b7"/>
                  <path id="Path_1947" data-name="Path 1947" d="M14.935,48.666s-.777-1.5-1.971-1.755-2.1,1.148-1.988,3.014c-1.009-1-2.81-.266-3.355,2.348s1.933,4.6,5.109,3.456,4.824-1.9,4.043-3.4-1.838-3.659-1.838-3.659" transform="translate(-4.948 -30.74)" fill="#4b5a6b"/>
                  <path id="Path_1948" data-name="Path 1948" d="M23.975,50.332s-.575-1.713-1.59-2.1-1.9,1.1-.654,2.534,2.769.964,2.243-.43" transform="translate(-13.85 -31.581)" fill="#7e8390"/>
                  <path id="Path_1949" data-name="Path 1949" d="M358.528,63.665s8.181-12.2,9.177-18.514c0,0,2.854-4.383,5.743-.343,4.95-1.334,5.731,3.734,5.339,8.759s-8.58,30.892-14.647,33.919-14.087-7.493-14.087-7.493-1.76-2.828,8.475-16.329" transform="translate(-229.457 -28.26)" fill="#4db96e"/>
                  <path id="Path_1950" data-name="Path 1950" d="M358.528,63.665s8.181-12.2,9.177-18.514c0,0,2.854-4.383,5.743-.343,4.95-1.334,5.731,3.734,5.339,8.759a26.586,26.586,0,0,1-.725,3.749c-4.238-2.4-8.59-3.223-11.178.832-3.155,4.856.661,12.2,4.827,17.733-2.448,5.638-5.177,10.408-7.571,11.6-6.051,3.022-14.087-7.493-14.087-7.493s-1.76-2.828,8.475-16.329" transform="translate(-229.457 -28.26)" fill="#4db96e"/>
                  <path id="Path_1951" data-name="Path 1951" d="M406.55,58.087a30.592,30.592,0,0,0,.92-4.514c.392-5.025-.388-10.093-5.338-8.759-2.906-4.035-5.743.343-5.743.343a28.881,28.881,0,0,1-2.707,7.372,23.275,23.275,0,0,1,12.868,5.559" transform="translate(-258.14 -28.264)" fill="#242929"/>
                  <path id="Path_1952" data-name="Path 1952" d="M413.825,85.354s2.154.231,2.5,1.537-2.106,9.42-3.469,10.677-2.431-3.945-1.839-7.39,1.553-4.693,2.813-4.825" transform="translate(-269.394 -55.967)" fill="#a6d7b7"/>
                  <path id="Path_1953" data-name="Path 1953" d="M400.409,47.194s.605-1.579,1.767-1.962,2.209.917,2.3,2.78c.892-1.1,2.765-.567,3.592,1.973s-1.424,4.783-4.7,3.991-5-1.367-4.39-2.945,1.429-3.837,1.429-3.837" transform="translate(-261.534 -29.614)" fill="#4b5a6b"/>
                  <path id="Path_1954" data-name="Path 1954" d="M403.125,48.972s.386-1.765,1.351-2.265,2,.874.925,2.444-2.641,1.261-2.276-.18" transform="translate(-264.297 -30.558)" fill="#7e8390"/>
                  <path id="Path_1955" data-name="Path 1955" d="M18.409,8.121a8.49,8.49,0,0,1-1.529.258c-.634.069-1.164.1-1.528.107,1.5-3.557-1.522-8.814-5.309-8.47a3.229,3.229,0,0,0-3.1,1.721,3.734,3.734,0,0,0,.213,4.645,8.687,8.687,0,0,0,4.9,3.147c-1.7,2.317-4.011,2.579-6.868,2.6a18.1,18.1,0,0,1-4.27-.32v.344A4.567,4.567,0,0,1,0,14.886c4.558.627,9.537-.062,12.711-3.04a10.569,10.569,0,0,0,1.577-1.584c.1-.127.2-.258.293-.392a5.88,5.88,0,0,0,3.853-.344c2.1-1.009,2.878-3.856,2.9-3.849a3.265,3.265,0,0,1-.589,1,4.734,4.734,0,0,1-2.331,1.446m-5.1-.936c-.812.661-2.355.11-3.443-1.229S8.548,2.991,9.361,2.33s2.355-.11,3.443,1.233,1.319,2.961.51,3.622" transform="matrix(0.602, 0.799, -0.799, 0.602, 135.153, 64.681)" fill="#3b9f60"/>
                  <g id="Group_942" data-name="Group 942" transform="matrix(0.602, 0.799, -0.799, 0.602, 129.406, 71.116)" opacity="0.29" style="isolation: isolate">
                    <g id="Group_941" data-name="Group 941">
                      <g id="Group_940" data-name="Group 940" clip-path="url(#clip-path-4)">
                        <path id="Path_1956" data-name="Path 1956" d="M7.691,3.25l-.145-.069a12.776,12.776,0,0,1-4.042.5A24.381,24.381,0,0,1,.427,3.577L0,6.59C4.07,6.851,8.263,6,11.045,3.384A10.52,10.52,0,0,0,12.622,1.8c.1-.124.193-.251.285-.382C13.251.575,13.444,0,13.444,0c-1.1,1.622-5.753,3.25-5.753,3.25" fill="#191919"/>
                      </g>
                    </g>
                  </g>
                  <path id="Path_1957" data-name="Path 1957" d="M155.573,22.684C160.121,16.511,166.5-.211,154.885,0,145,.181,135.518,5.167,132.53,6.864,120.5,3.328,108.773,3.672,107.369,3.941a64.126,64.126,0,0,0-24.961,3.2C80.1,5.766,70.058.195,59.574,0c-11.92-.217-4.875,17.411-.324,23.15a50.4,50.4,0,0,0-3.65,5.3c-16.791,28.015-4.762,69.313,29.585,80.33,13.655,4.376,57.373,8.263,72.267-18.822,11.509-20.933,6.893-52.728-1.88-67.278" transform="translate(-31.536 0)" fill="#4db96e"/>
                  <path id="Path_1958" data-name="Path 1958" d="M204.11,23.317c4.132-5.622,9.8-19.969,2.014-22.351,5.9,4.5-1.012,17.559-5.1,15.865-3.46-1.208-11.458-6.81-17.941-10.425-.83.427-1.515.806-2.011,1.091h-.034c6.779,4.025,17.4,10.256,19.669,16.6,8.49,23.7,9.172,45.2-4.713,65.794-8.8,13.052-26.886,17.042-40.558,18.148a77.029,77.029,0,0,1-33.321-3.946,52.594,52.594,0,0,0,11.606,5.323c13.655,4.376,57.373,8.263,72.267-18.822,11.509-20.933,6.893-52.728-1.88-67.278" transform="translate(-80.073 -0.633)" fill="#3b9f60"/>
                  <path id="Path_1959" data-name="Path 1959" d="M94.52,20.565S64.649,30.24,58.989,51.528c-4.717,17.659,2.517,43.057,18.55,54.185s51.534,9.189,63.2-2.283c14.908-14.66,7.109-27.268-3.257-27.8,0,0-13.4-5.853-18.433-.034-2.517,3.632-13.837,4.355-14.781-1.449-2.513-3.384-7.464-.992-18.863,2.537-5.058,1.553-14.7-11.875-2.992-21.171,14.56-11.561,56.808-9.527,65.784,7,6.783,12.47,10.063-27.03-5.03-34.774s-32.608-9.592-48.645-7.175" transform="translate(-37.748 -12.834)" fill="#6fc282"/>
                  <path id="Path_1960" data-name="Path 1960" d="M316.517,23.609s9.675,6.542,11.1,9.1c2.272-.286,5.688-10.243,5.12-13.658s-10.236-2.548-16.22,4.555" transform="translate(-207.543 -11.226)" fill="#6fc282"/>
                  <path id="Path_1961" data-name="Path 1961" d="M332.749,20.346a1.871,1.871,0,0,0-.875-1.27c-.324,3.464-1.088,8.841-4.476,9.458-3.185.709-7.389-2.517-10.174-4.417-.238.255-.471.513-.689.785,0,0,9.675,6.542,11.1,9.1,2.266-.286,5.681-10.243,5.113-13.658" transform="translate(-207.555 -12.508)" fill="#3b9f60"/>
                  <path id="Path_1962" data-name="Path 1962" d="M147.231,113.632s-11.051,5.132-13.487,17.352c-1.761,8.537,3.58,19.4,15.372,15.279S167.8,140.9,174.923,141.3s16.642-3.141,17.259-9.307-1.533-15.266-10.413-19.836-21.147-5.906-34.538,1.479" transform="translate(-87.481 -71.085)" fill="#3b9f60"/>
                  <path id="Path_1963" data-name="Path 1963" d="M141.558,139.222s.867,10.114,10.382,8.791,14.324-5.492,30.17-5.806,14.685-10.662,10.446-17.886-16.444-11.722-28.491-9.238-22.755,10.7-22.507,24.138" transform="translate(-92.818 -75.009)" fill="#4db96e"/>
                  <path id="Path_1964" data-name="Path 1964" d="M167.842,167.591a3.6,3.6,0,1,1-4.093-3.6,3.871,3.871,0,0,1,4.093,3.6" transform="translate(-105.404 -107.513)" fill="#3b9f60"/>
                  <path id="Path_1965" data-name="Path 1965" d="M171.8,170.348a3.6,3.6,0,1,1-4.09-3.6,3.876,3.876,0,0,1,4.09,3.6" transform="translate(-107.999 -109.319)" fill="#242929"/>
                  <path id="Path_1966" data-name="Path 1966" d="M257.132,151.147a3.6,3.6,0,1,1-4.089-3.595,3.883,3.883,0,0,1,4.089,3.595" transform="translate(-163.954 -96.732)" fill="#3b9f60"/>
                  <path id="Path_1967" data-name="Path 1967" d="M261.083,153.908a3.6,3.6,0,1,1-4.093-3.6,3.877,3.877,0,0,1,4.093,3.6" transform="translate(-166.542 -98.54)" fill="#242929"/>
                  <path id="Path_1968" data-name="Path 1968" d="M221.362,117.516s-9.01-1.538-11.933,1.549c-.549,1.4,3.814,3.945,9.057,3.037s6.463-4.569,2.876-4.586" transform="translate(-137.294 -76.805)" fill="#a6d7b7"/>
                </g>
              </g>
              <g id="Group_946" data-name="Group 946" transform="translate(73.268 3.772)">
                <g id="Group_945" data-name="Group 945" clip-path="url(#clip-path-5)">
                  <rect id="Rectangle_490" data-name="Rectangle 490" width="4.204" height="7.705" transform="translate(0 0)" fill="url(#linear-gradient)"/>
                </g>
              </g>
              <g id="Group_948" data-name="Group 948">
                <g id="Group_947" data-name="Group 947" clip-path="url(#clip-path-2)">
                  <path id="Path_1970" data-name="Path 1970" d="M207.7,8.7s-.63,7.127.3,8.043-2.345-.207-2.345-.207l-1.546-5.509.837-2.7Z" transform="translate(-133.834 -5.459)" fill="#3b9f60"/>
                  <path id="Path_1971" data-name="Path 1971" d="M222.278,8.7s.63,7.127-.3,8.043,2.345-.207,2.345-.207l1.546-5.509-.837-2.7Z" transform="translate(-145.447 -5.459)" fill="#3b9f60"/>
                  <path id="Path_1972" data-name="Path 1972" d="M262.137,61.278a.965.965,0,0,1-.325-.409,1.993,1.993,0,0,1-.167-.647c-1.048-10.6-6.462-9.557-6.689-9.509a.45.45,0,0,1-.3-.041.753.753,0,0,1-.267-.243,1.838,1.838,0,0,1-.288-.92,2.235,2.235,0,0,1,.158-1.017.814.814,0,0,1,.511-.519c.073-.011,7.081-1.372,8.376,11.769a2.269,2.269,0,0,1-.129,1,.894.894,0,0,1-.479.556.467.467,0,0,1-.4-.019" transform="translate(-166.613 -31.427)" fill="#3b9f60"/>
                  <path id="Path_1973" data-name="Path 1973" d="M145.652,60.923a.509.509,0,0,1-.36.128.545.545,0,0,1-.4-.4,1.772,1.772,0,0,1-.062-.847c1.957-11.762,8.206-11.878,8.267-11.878a.383.383,0,0,1,.247.093.683.683,0,0,1,.184.263,1.358,1.358,0,0,1,.094.394,2.041,2.041,0,0,1-.011.465,2.239,2.239,0,0,1-.114.465,1.749,1.749,0,0,1-.2.395.993.993,0,0,1-.255.263.488.488,0,0,1-.271.093c-.207,0-5.032.145-6.608,9.583a2.117,2.117,0,0,1-.2.58,1.218,1.218,0,0,1-.316.4" transform="translate(-94.951 -31.426)" fill="#3b9f60"/>
                  <path id="Path_1974" data-name="Path 1974" d="M165.546,72.3a5.573,5.573,0,1,0-5.573-5.573,5.573,5.573,0,0,0,5.573,5.573" transform="translate(-97.373 -32.575)" fill="#191919"/>
                  <path id="Path_1975" data-name="Path 1975" d="M195.723,85.244c.513,2.155.623,6.173-4.355,8.934a5.33,5.33,0,0,0,4.355-8.934" transform="translate(-125.481 -55.895)" fill="#242929"/>
                  <path id="Path_1976" data-name="Path 1976" d="M192.779,91.71a1.212,1.212,0,1,0-1.212-1.212,1.212,1.212,0,0,0,1.212,1.212" transform="translate(-122.472 -54.926)" fill="#fff"/>
                  <path id="Path_1977" data-name="Path 1977" d="M227.99,89.6a6.173,6.173,0,1,0-6.173-6.173A6.173,6.173,0,0,0,227.99,89.6" transform="translate(-145.447 -50.655)" fill="#191919"/>
                  <path id="Path_1978" data-name="Path 1978" d="M243.3,83c.593,2.493.721,7.141-5.038,10.335A6.165,6.165,0,0,0,243.3,83" transform="translate(-156.232 -54.424)" fill="#242929"/>
                  <path id="Path_1979" data-name="Path 1979" d="M229.049,93.968a1.342,1.342,0,1,0-1.342-1.342,1.342,1.342,0,0,0,1.342,1.342" transform="translate(-149.309 -59.856)" fill="#fff"/>
                  <path id="Path_1981" data-name="Path 1981" d="M131.86,245.038c-1.614-.094-2.617-1.75-2.74-3.181a11.686,11.686,0,0,1,.337-3.831l-.018.946c.009,1.616.311,4.632,2.377,4.689l.043,1.376" transform="translate(-58.114 -151.255)" fill="#268b00"/>
                  <path id="Path_1982" data-name="Path 1982" d="M277.952,226.981c1.245-.716.93-2.463.38-3.6a11.138,11.138,0,0,0-.948-1.629l-.565-.774a17.968,17.968,0,0,1,1.356,1.374c1.259,1.378,2.322,3.646.965,5.342a2.309,2.309,0,0,1-.481.468l-.707-1.182" transform="translate(-181.512 -144.898)" fill="#268b00"/>
                </g>
              </g>
            </g>
          </g>
          <path id="Path_2101" data-name="Path 2101" d="M0,2.595S6.876,3.89,10.033,0" transform="matrix(0.996, -0.087, 0.087, 0.996, 80.853, 88.744)" fill="none" stroke="#3b9f60" stroke-linecap="round" stroke-miterlimit="10" stroke-width="0.43"/>
          <path id="Path_2102" data-name="Path 2102" d="M.034,9.144C-.19,7.38.71,5.486,2.549,3.855A16.177,16.177,0,0,1,9.9.386a16.179,16.179,0,0,1,8.128.269c2.334.769,3.912,2.151,4.405,3.858Z" transform="translate(72.299 83.947) rotate(-27)" fill="#3b9f60"/>
          <path id="Path_2103" data-name="Path 2103" d="M.014,7.9c-.142-1.54.8-3.188,2.636-4.6A16.988,16.988,0,0,1,9.86.315a16.989,16.989,0,0,1,7.8.285c2.21.685,3.669,1.9,4.072,3.394Z" transform="translate(72.808 84.442) rotate(-26)" fill="#242929"/>
        </g>
      </g>
    </g>
  </g>
</svg>
