<svg viewBox="0 0 1920 220.14" xmlns="http://www.w3.org/2000/svg"><g fill="#014638"><path d="m1920 137.08v-54.02h-66.79v-29.04h66.34v-54.02h-147.72v220.14h147.72v-54.38h-66.34v-28.68z"/><path d="m835.32 220.14h82.77s.02-122.92 0-122.93h-82.77s0 122.93 0 122.93z"/><path d="m835.4 40.94c0 23.12 18.59 41.93 41.43 41.93s41.43-18.81 41.43-41.93-18.2-40.94-41.43-40.94-41.43 17.98-41.43 40.94z"/><path d="m1098.48 165.76h-63.65v-165.76h-82.86v220.14h146.51z"/><path d="m1271.2 165.76h-63.65v-165.76h-82.86v220.14h146.51z"/><path d="m1374.05 0-80.73 220.14h82.86l39.3-110.97 39.3 110.97h82.86l-80.73-220.14s-82.86 0-82.86 0z"/><path d="m744.29 220.13 80.73-220.13h-82.86l-39.29 110.97-39.3-110.97h-82.86l80.73 220.13s82.86 0 82.86 0z"/><path d="m219.61 220.14h82.77s.02-122.92 0-122.93h-82.77s0 122.93 0 122.93z"/><path d="m219.68 40.94c0 23.12 18.59 41.93 41.43 41.93s41.43-18.81 41.43-41.93-18.2-40.94-41.43-40.94-41.43 17.98-41.43 40.94z"/><path d="m1749.82 110.07h-.02v-.05h-110.03v28.1h34.16c-8.11 9.86-20.39 16.16-34.16 16.16-24.41 0-44.19-19.79-44.19-44.19s19.79-44.19 44.19-44.19c14.21 0 26.83 6.74 34.91 17.16h71.78c-12.04-47.71-55.24-83.02-106.69-83.02-60.78 0-110.05 49.27-110.05 110.05s49.27 110.05 110.05 110.05 110.05-49.27 110.05-110.05z"/><path d="m546.96 110.07h-.02v-.05h-110.03v28.1h34.16c-8.11 9.86-20.39 16.16-34.16 16.16-24.41 0-44.19-19.79-44.19-44.19s19.79-44.19 44.19-44.19c14.21 0 26.83 6.74 34.91 17.16h71.78c-12.05-47.71-55.24-83.02-106.69-83.02-60.78 0-110.05 49.27-110.05 110.05s49.27 110.05 110.05 110.05 110.05-49.27 110.05-110.05z"/><path d="m181.06 110.08.94-1.54c6.22-10.66 12.31-25.86 12.31-38.54 0-19.28-7.58-34.88-21.35-48.65-13.78-13.77-31.98-21.35-51.26-21.35h-121.7v220.13h121.7c19.28 0 37.48-7.58 51.25-21.35s21.35-29.05 21.35-48.33c0-12.76-6.01-27.54-12.33-38.68l-.92-1.69zm-75.17 55.68h-35.83v-31.16h35.83c8.68 0 18.55 3.74 18.55 15.78s-9.72 15.38-18.55 15.38zm0-80.58h-35.83v-31.16h35.83c8.68 0 18.55 3.74 18.55 15.78s-9.72 15.38-18.55 15.38z"/></g></svg>