<svg version="1.2" baseProfile="tiny" xmlns="http://www.w3.org/2000/svg" xmlns:xlink="http://www.w3.org/1999/xlink"
	 x="0px" y="0px" viewBox="25.5 0 44 46" xml:space="preserve">
<path d="M53.538,36.803c-0.776-0.413-1.742-0.119-2.156,0.65l0,0c-1.717,3.191-5.078,5.362-8.956,5.362
	c-2.809,0-5.338-1.133-7.18-2.974c-1.841-1.84-2.971-4.371-2.971-7.18c0-3.361,1.629-6.331,4.145-8.187
	c0.707-0.518,0.855-1.512,0.338-2.222c-0.521-0.707-1.516-0.858-2.226-0.334c-3.295,2.417-5.441,6.337-5.438,10.743
	c0,7.367,5.969,13.335,13.335,13.338c5.087,0,9.516-2.85,11.763-7.038C54.604,38.188,54.314,37.223,53.538,36.803z M44.512,8.809
	c2.43,0,4.402-1.969,4.402-4.403C48.914,1.966,46.941,0,44.512,0c-2.434,0-4.406,1.966-4.406,4.406
	C40.105,6.836,42.078,8.806,44.512,8.809z M54.282,27.287c-0.375-0.577-1.01-0.921-1.697-0.921h-6.486v-9.352l2.62,2.619
	c0.309,0.307,0.732,0.486,1.171,0.486h6.482c0.909,0,1.647-0.742,1.647-1.654c0-0.909-0.738-1.651-1.647-1.651h-5.801l-4.978-4.974
	c-0.637-1.083-1.814-1.812-3.165-1.812c-2.026,0-3.667,1.641-3.667,3.667v13.098c0,2.029,1.638,3.674,3.667,3.674
	c0.233,0,0.458-0.025,0.679-0.066c0.019,0,0.037,0.004,0.057,0.004h8.322l6.252,9.717c0.386,0.604,1.035,0.928,1.698,0.928
	c0.376,0,0.758-0.107,1.092-0.321c0.935-0.606,1.206-1.853,0.604-2.794L54.282,27.287z M63.444,15.064
	c-0.395-0.186-0.867-0.016-1.057,0.379l-3.333,7.123h-9.531c-0.436,0-0.796,0.357-0.796,0.799s0.357,0.798,0.796,0.798H59.56
	c0.31,0,0.59-0.177,0.723-0.461l3.548-7.587C64.016,15.721,63.839,15.247,63.444,15.064z"/>
</svg>
