<svg width="122" height="47" viewBox="0 0 122 47" fill="none" xmlns="http://www.w3.org/2000/svg">
<path d="M91.2687 23.9781H82.7477C82.7723 23.6105 82.8522 23.1931 82.9868 22.7275C83.1234 22.2618 83.3556 21.8207 83.6883 21.404C84.0203 20.9867 84.4629 20.6375 85.0163 20.3556C85.5696 20.0738 86.2643 19.9336 87.0997 19.9336C88.3792 19.9336 89.3321 20.276 89.9592 20.9615C90.5863 21.6491 91.0228 22.6533 91.2687 23.9774V23.9781ZM96.5068 27.2867C96.5068 27.2867 96.4822 24.407 96.1379 23.059C95.7936 21.7111 95.2342 20.5095 94.4595 19.4557C93.6849 18.4018 92.6951 17.5631 91.4901 16.9368C90.2858 16.3125 88.8717 16 87.248 16H77.5103L79.9264 19.2521C79.9264 19.2521 78.5534 21.1678 78.2118 22.0664C77.7439 23.2919 77.5103 24.616 77.5103 26.0374C77.5103 27.5079 77.7378 28.8559 78.1934 30.0813C78.6477 31.3067 79.2932 32.3605 80.1293 33.2428C80.9648 34.1251 81.9853 34.8052 83.1896 35.2831C84.3953 35.761 85.7479 36 87.2473 36C89.4127 36 91.2571 35.5098 92.7805 34.5295C93.4157 34.121 94.7656 32.4838 94.7656 32.4838L91.5638 29.6401C91.391 30.2283 90.9238 30.7859 90.1614 31.3128C89.3991 31.8397 88.4892 32.1025 87.4317 32.1025C85.9562 32.1025 84.8257 31.7233 84.0387 30.9636C83.2518 30.2031 82.8214 28.9777 82.7477 27.2874H96.5068V27.2867ZM111.762 23.9781H103.241C103.265 23.6105 103.345 23.1931 103.48 22.7275C103.617 22.2618 103.849 21.8207 104.182 21.404C104.513 20.9867 104.956 20.6375 105.509 20.3556C106.063 20.0738 106.757 19.9336 107.593 19.9336C108.872 19.9336 109.825 20.276 110.452 20.9615C111.08 21.6491 111.516 22.6533 111.762 23.9774V23.9781ZM117 27.2867C117 27.2867 116.975 24.407 116.631 23.059C116.287 21.7111 115.727 20.5095 114.953 19.4557C114.178 18.4018 113.188 17.5631 111.983 16.9368C110.779 16.3125 109.365 16 107.741 16H98.0035L100.42 19.2521C100.42 19.2521 99.0466 21.1678 98.705 22.0664C98.2371 23.2919 98.0035 24.616 98.0035 26.0374C98.0035 27.5079 98.231 28.8559 98.6866 30.0813C99.1409 31.3067 99.7864 32.3605 100.623 33.2428C101.458 34.1251 102.479 34.8052 103.683 35.2831C104.889 35.761 106.241 36 107.74 36C109.906 36 111.75 35.5098 113.274 34.5295C113.909 34.121 115.259 32.4838 115.259 32.4838L112.057 29.6401C111.884 30.2283 111.417 30.7859 110.655 31.3128C109.892 31.8397 108.982 32.1025 107.925 32.1025C106.449 32.1025 105.319 31.7233 104.532 30.9636C103.745 30.2031 103.315 28.9777 103.241 27.2874H117V27.2867ZM47 16.5222V35.725H52.2381V24.6963C52.2381 23.765 52.3733 23.0114 52.6438 22.4361C52.9143 21.8595 53.2402 21.4183 53.6207 21.112C54.0032 20.8056 54.396 20.5973 54.8024 20.487C55.2075 20.3767 55.5334 20.3216 55.7793 20.3216C56.6154 20.3216 57.248 20.4618 57.6783 20.7437C58.1087 21.0255 58.4161 21.3993 58.6005 21.8649C58.785 22.3306 58.8902 22.8385 58.9147 23.3899C58.9393 23.9413 58.9516 24.4996 58.9516 25.0632V35.7243H64.1897V25.1375C64.1897 24.5493 64.2327 23.9665 64.3195 23.3912C64.4049 22.8153 64.577 22.3006 64.8352 21.8472C65.0948 21.3938 65.45 21.0262 65.9057 20.7444C66.3606 20.4625 66.9576 20.3223 67.6954 20.3223C68.4332 20.3223 69.0165 20.4448 69.4469 20.6899C69.8773 20.935 70.2038 21.2652 70.4251 21.6818C70.6464 22.0984 70.7817 22.5886 70.8309 23.1523C70.88 23.716 70.9046 24.3164 70.9046 24.9536V35.725H76.1427V23.0046C76.1427 21.7792 75.9706 20.7321 75.6263 19.8621C75.282 18.992 74.8025 18.2874 74.1877 17.7482C73.5729 17.2084 72.8351 16.8156 71.9744 16.5705C71.1137 16.3254 70.1792 16.2029 69.1709 16.2029C67.843 16.2029 66.6933 16.5228 65.7212 17.1594C64.7512 17.7966 63.982 18.5318 63.4164 19.3651C62.9 18.1887 62.1438 17.3677 61.1485 16.902C60.1484 16.4371 59.0486 16.2036 57.8443 16.2036C56.5901 16.2036 55.4774 16.4738 54.506 17.0137C53.536 17.5515 52.7053 18.3119 52.0167 19.2923L49.6423 18.0076L47 16.5222Z" fill="#495867"/>
<path d="M23.4391 43.121C12.7042 43.121 4 34.363 4 23.5586C4.00093 12.757 12.7051 4 23.44 4C34.1749 4 42.8781 12.7579 42.8781 23.5623C42.8781 26.7548 42.1181 29.7687 40.7693 32.431L44 44L32.653 40.7908C29.9116 42.2763 26.7749 43.121 23.4391 43.121ZM23.6667 34C29.3731 34 34 29.3725 34 23.6667C34 17.959 29.3731 13.3333 23.6667 13.3333C17.9584 13.3333 13.3333 17.959 13.3333 23.6667C13.3333 29.3725 17.9584 34 23.6667 34Z" fill="#2BD675"/>
</svg>
